<svg xmlns="http://www.w3.org/2000/svg" viewBox="0 0 100 100" width="100" height="100">
  <!-- Background circle -->
  <circle cx="50" cy="50" r="48" fill="#0099cc"/>
  <!-- Tennis ball inner circle -->
  <circle cx="50" cy="50" r="32" fill="#c8e86d"/>
  <!-- Tennis ball curved lines -->
  <path d="M50 18 C36 18 26 30 26 44 C26 30 16 20 18 18" fill="none" stroke="white" stroke-width="3.5" stroke-linecap="round"/>
  <path d="M50 18 C64 18 74 30 74 44 C74 30 84 20 82 18" fill="none" stroke="white" stroke-width="3.5" stroke-linecap="round"/>
  <path d="M50 82 C36 82 26 70 26 56 C26 70 16 80 18 82" fill="none" stroke="white" stroke-width="3.5" stroke-linecap="round"/>
  <path d="M50 82 C64 82 74 70 74 56 C74 70 84 80 82 82" fill="none" stroke="white" stroke-width="3.5" stroke-linecap="round"/>
  <!-- Horizontal seam line -->
  <path d="M18 50 C26 44 36 42 50 42 C64 42 74 44 82 50 C74 56 64 58 50 58 C36 58 26 56 18 50Z" fill="white" opacity="0.3"/>
  <!-- Center dot -->
  <circle cx="50" cy="50" r="4" fill="white" opacity="0.7"/>
</svg>
